<svg width="100" height="100" viewBox="0 0 74 60" fill="none" xmlns="http://www.w3.org/2000/svg">
    <path d="M45.0394 35.4421L45.8974 35.0339L45.0394 35.4421ZM28.2064 34.31L29.1241 34.5559L28.2064 34.31ZM73.3333 6.52107C73.6165 6.07935 73.4881 5.49163 73.0464 5.20837L65.8481 0.592351C65.4063 0.309089 64.8186 0.437548 64.5354 0.879271C64.2521 1.32099 64.3806 1.90871 64.8223 2.19197L71.2208 6.2951L67.1176 12.6936C66.8344 13.1353 66.9628 13.723 67.4046 14.0063C67.8463 14.2895 68.434 14.1611 68.7173 13.7194L73.3333 6.52107ZM2.12951 59.6278C6.83554 49.8538 15.465 39.4111 23.9513 33.7315C28.2036 30.8856 32.2966 29.3184 35.7705 29.4922C39.1424 29.6609 42.1014 31.4787 44.1815 35.8503L45.8974 35.0339C43.5633 30.1285 40.0369 27.803 35.8654 27.5943C31.796 27.3907 27.2877 29.212 22.8944 32.1523C14.0895 38.0451 5.25008 48.7663 0.417365 58.8035L2.12951 59.6278ZM44.1815 35.8503C45.7178 39.0791 45.1811 41.701 43.71 43.5981C42.1957 45.5508 39.613 46.8288 36.9507 47.0909C34.2915 47.3526 31.7287 46.5895 30.144 44.7015C28.5724 42.8292 27.7685 39.616 29.1241 34.5559L27.2886 34.0642C25.8388 39.4757 26.5779 43.4088 28.6885 45.9232C30.786 48.4221 34.0447 49.2863 37.1368 48.982C40.2257 48.678 43.3242 47.1966 45.2116 44.7625C47.1422 42.2729 47.7277 38.8806 45.8974 35.0339L44.1815 35.8503ZM29.1241 34.5559C31.4498 25.8751 39.404 19.5763 48.4104 15.1118C57.3773 10.6669 67.1529 8.15678 72.7363 6.9364L72.3306 5.07996C66.6919 6.31241 56.7397 8.86207 47.5664 13.4093C38.4326 17.9369 29.8342 24.5627 27.2886 34.0642L29.1241 34.5559Z" fill="#FFFFFF"/>
</svg>
