<svg width="100" height="100" viewBox="0 0 60 60" fill="none" xmlns="http://www.w3.org/2000/svg">
    <path d="M2.55197 0.190674H0.189453V2.55319H2.55197V0.190674Z" fill="white"/>
    <path d="M4.91428 0.190674H2.55176V2.55319H4.91428V0.190674Z" fill="white"/>
    <path d="M7.27658 0.190674H4.91406V2.55319H7.27658V0.190674Z" fill="white"/>
    <path d="M9.63986 0.190674H7.27734V2.55319H9.63986V0.190674Z" fill="white"/>
    <path d="M12.0022 0.190674H9.63965V2.55319H12.0022V0.190674Z" fill="white"/>
    <path d="M14.3645 0.190674H12.002V2.55319H14.3645V0.190674Z" fill="white"/>
    <path d="M16.7268 0.190674H14.3643V2.55319H16.7268V0.190674Z" fill="white"/>
    <path d="M26.177 0.190674H23.8145V2.55319H26.177V0.190674Z" fill="white"/>
    <path d="M33.2649 0.190674H30.9023V2.55319H33.2649V0.190674Z" fill="white"/>
    <path d="M35.6272 0.190674H33.2646V2.55319H35.6272V0.190674Z" fill="white"/>
    <path d="M40.3518 0.190674H37.9893V2.55319H40.3518V0.190674Z" fill="white"/>
    <path d="M45.0774 0.190674H42.7148V2.55319H45.0774V0.190674Z" fill="white"/>
    <path d="M47.4397 0.190674H45.0771V2.55319H47.4397V0.190674Z" fill="white"/>
    <path d="M49.802 0.190674H47.4395V2.55319H49.802V0.190674Z" fill="white"/>
    <path d="M52.1653 0.190674H49.8027V2.55319H52.1653V0.190674Z" fill="white"/>
    <path d="M54.5276 0.190674H52.165V2.55319H54.5276V0.190674Z" fill="white"/>
    <path d="M56.8899 0.190674H54.5273V2.55319H56.8899V0.190674Z" fill="white"/>
    <path d="M59.2522 0.190674H56.8896V2.55319H59.2522V0.190674Z" fill="white"/>
    <path d="M2.55197 2.55322H0.189453V4.91574H2.55197V2.55322Z" fill="white"/>
    <path d="M16.7268 2.55322H14.3643V4.91574H16.7268V2.55322Z" fill="white"/>
    <path d="M21.4524 2.55322H19.0898V4.91574H21.4524V2.55322Z" fill="white"/>
    <path d="M26.177 2.55322H23.8145V4.91574H26.177V2.55322Z" fill="white"/>
    <path d="M30.9026 2.55322H28.54V4.91574H30.9026V2.55322Z" fill="white"/>
    <path d="M35.6272 2.55322H33.2646V4.91574H35.6272V2.55322Z" fill="white"/>
    <path d="M37.9895 2.55322H35.627V4.91574H37.9895V2.55322Z" fill="white"/>
    <path d="M45.0774 2.55322H42.7148V4.91574H45.0774V2.55322Z" fill="white"/>
    <path d="M59.2522 2.55322H56.8896V4.91574H59.2522V2.55322Z" fill="white"/>
    <path d="M2.55197 4.91589H0.189453V7.27841H2.55197V4.91589Z" fill="white"/>
    <path d="M7.27658 4.91589H4.91406V7.27841H7.27658V4.91589Z" fill="white"/>
    <path d="M9.63986 4.91589H7.27734V7.27841H9.63986V4.91589Z" fill="white"/>
    <path d="M12.0022 4.91589H9.63965V7.27841H12.0022V4.91589Z" fill="white"/>
    <path d="M16.7268 4.91589H14.3643V7.27841H16.7268V4.91589Z" fill="white"/>
    <path d="M28.5393 4.91589H26.1768V7.27841H28.5393V4.91589Z" fill="white"/>
    <path d="M30.9026 4.91589H28.54V7.27841H30.9026V4.91589Z" fill="white"/>
    <path d="M33.2649 4.91589H30.9023V7.27841H33.2649V4.91589Z" fill="white"/>
    <path d="M35.6272 4.91589H33.2646V7.27841H35.6272V4.91589Z" fill="white"/>
    <path d="M37.9895 4.91589H35.627V7.27841H37.9895V4.91589Z" fill="white"/>
    <path d="M40.3518 4.91589H37.9893V7.27841H40.3518V4.91589Z" fill="white"/>
    <path d="M45.0774 4.91589H42.7148V7.27841H45.0774V4.91589Z" fill="white"/>
    <path d="M49.802 4.91589H47.4395V7.27841H49.802V4.91589Z" fill="white"/>
    <path d="M52.1653 4.91589H49.8027V7.27841H52.1653V4.91589Z" fill="white"/>
    <path d="M54.5276 4.91589H52.165V7.27841H54.5276V4.91589Z" fill="white"/>
    <path d="M59.2522 4.91589H56.8896V7.27841H59.2522V4.91589Z" fill="white"/>
    <path d="M2.55197 7.2782H0.189453V9.64072H2.55197V7.2782Z" fill="white"/>
    <path d="M7.27658 7.2782H4.91406V9.64072H7.27658V7.2782Z" fill="white"/>
    <path d="M9.63986 7.2782H7.27734V9.64072H9.63986V7.2782Z" fill="white"/>
    <path d="M12.0022 7.2782H9.63965V9.64072H12.0022V7.2782Z" fill="white"/>
    <path d="M16.7268 7.2782H14.3643V9.64072H16.7268V7.2782Z" fill="white"/>
    <path d="M28.5393 7.2782H26.1768V9.64072H28.5393V7.2782Z" fill="white"/>
    <path d="M30.9026 7.2782H28.54V9.64072H30.9026V7.2782Z" fill="white"/>
    <path d="M33.2649 7.2782H30.9023V9.64072H33.2649V7.2782Z" fill="white"/>
    <path d="M35.6272 7.2782H33.2646V9.64072H35.6272V7.2782Z" fill="white"/>
    <path d="M45.0774 7.2782H42.7148V9.64072H45.0774V7.2782Z" fill="white"/>
    <path d="M49.802 7.2782H47.4395V9.64072H49.802V7.2782Z" fill="white"/>
    <path d="M52.1653 7.2782H49.8027V9.64072H52.1653V7.2782Z" fill="white"/>
    <path d="M54.5276 7.2782H52.165V9.64072H54.5276V7.2782Z" fill="white"/>
    <path d="M59.2522 7.2782H56.8896V9.64072H59.2522V7.2782Z" fill="white"/>
    <path d="M2.55197 9.64075H0.189453V12.0033H2.55197V9.64075Z" fill="white"/>
    <path d="M7.27658 9.64075H4.91406V12.0033H7.27658V9.64075Z" fill="white"/>
    <path d="M9.63986 9.64075H7.27734V12.0033H9.63986V9.64075Z" fill="white"/>
    <path d="M12.0022 9.64075H9.63965V12.0033H12.0022V9.64075Z" fill="white"/>
    <path d="M16.7268 9.64075H14.3643V12.0033H16.7268V9.64075Z" fill="white"/>
    <path d="M21.4524 9.64075H19.0898V12.0033H21.4524V9.64075Z" fill="white"/>
    <path d="M23.8147 9.64075H21.4521V12.0033H23.8147V9.64075Z" fill="white"/>
    <path d="M30.9026 9.64075H28.54V12.0033H30.9026V9.64075Z" fill="white"/>
    <path d="M35.6272 9.64075H33.2646V12.0033H35.6272V9.64075Z" fill="white"/>
    <path d="M40.3518 9.64075H37.9893V12.0033H40.3518V9.64075Z" fill="white"/>
    <path d="M45.0774 9.64075H42.7148V12.0033H45.0774V9.64075Z" fill="white"/>
    <path d="M49.802 9.64075H47.4395V12.0033H49.802V9.64075Z" fill="white"/>
    <path d="M52.1653 9.64075H49.8027V12.0033H52.1653V9.64075Z" fill="white"/>
    <path d="M54.5276 9.64075H52.165V12.0033H54.5276V9.64075Z" fill="white"/>
    <path d="M59.2522 9.64075H56.8896V12.0033H59.2522V9.64075Z" fill="white"/>
    <path d="M2.55197 12.0033H0.189453V14.3658H2.55197V12.0033Z" fill="white"/>
    <path d="M16.7268 12.0033H14.3643V14.3658H16.7268V12.0033Z" fill="white"/>
    <path d="M23.8147 12.0033H21.4521V14.3658H23.8147V12.0033Z" fill="white"/>
    <path d="M26.177 12.0033H23.8145V14.3658H26.177V12.0033Z" fill="white"/>
    <path d="M33.2649 12.0033H30.9023V14.3658H33.2649V12.0033Z" fill="white"/>
    <path d="M37.9895 12.0033H35.627V14.3658H37.9895V12.0033Z" fill="white"/>
    <path d="M45.0774 12.0033H42.7148V14.3658H45.0774V12.0033Z" fill="white"/>
    <path d="M59.2522 12.0033H56.8896V14.3658H59.2522V12.0033Z" fill="white"/>
    <path d="M2.55197 14.3658H0.189453V16.7284H2.55197V14.3658Z" fill="white"/>
    <path d="M4.91428 14.3658H2.55176V16.7284H4.91428V14.3658Z" fill="white"/>
    <path d="M7.27658 14.3658H4.91406V16.7284H7.27658V14.3658Z" fill="white"/>
    <path d="M9.63986 14.3658H7.27734V16.7284H9.63986V14.3658Z" fill="white"/>
    <path d="M12.0022 14.3658H9.63965V16.7284H12.0022V14.3658Z" fill="white"/>
    <path d="M14.3645 14.3658H12.002V16.7284H14.3645V14.3658Z" fill="white"/>
    <path d="M16.7268 14.3658H14.3643V16.7284H16.7268V14.3658Z" fill="white"/>
    <path d="M21.4524 14.3658H19.0898V16.7284H21.4524V14.3658Z" fill="white"/>
    <path d="M26.177 14.3658H23.8145V16.7284H26.177V14.3658Z" fill="white"/>
    <path d="M30.9026 14.3658H28.54V16.7284H30.9026V14.3658Z" fill="white"/>
    <path d="M35.6272 14.3658H33.2646V16.7284H35.6272V14.3658Z" fill="white"/>
    <path d="M40.3518 14.3658H37.9893V16.7284H40.3518V14.3658Z" fill="white"/>
    <path d="M45.0774 14.3658H42.7148V16.7284H45.0774V14.3658Z" fill="white"/>
    <path d="M47.4397 14.3658H45.0771V16.7284H47.4397V14.3658Z" fill="white"/>
    <path d="M49.802 14.3658H47.4395V16.7284H49.802V14.3658Z" fill="white"/>
    <path d="M52.1653 14.3658H49.8027V16.7284H52.1653V14.3658Z" fill="white"/>
    <path d="M54.5276 14.3658H52.165V16.7284H54.5276V14.3658Z" fill="white"/>
    <path d="M56.8899 14.3658H54.5273V16.7284H56.8899V14.3658Z" fill="white"/>
    <path d="M59.2522 14.3658H56.8896V16.7284H59.2522V14.3658Z" fill="white"/>
    <path d="M23.8147 16.7284H21.4521V19.0909H23.8147V16.7284Z" fill="white"/>
    <path d="M26.177 16.7284H23.8145V19.0909H26.177V16.7284Z" fill="white"/>
    <path d="M28.5393 16.7284H26.1768V19.0909H28.5393V16.7284Z" fill="white"/>
    <path d="M33.2649 16.7284H30.9023V19.0909H33.2649V16.7284Z" fill="white"/>
    <path d="M35.6272 16.7284H33.2646V19.0909H35.6272V16.7284Z" fill="white"/>
    <path d="M2.55197 19.0908H0.189453V21.4533H2.55197V19.0908Z" fill="white"/>
    <path d="M7.27658 19.0908H4.91406V21.4533H7.27658V19.0908Z" fill="white"/>
    <path d="M12.0022 19.0908H9.63965V21.4533H12.0022V19.0908Z" fill="white"/>
    <path d="M16.7268 19.0908H14.3643V21.4533H16.7268V19.0908Z" fill="white"/>
    <path d="M23.8147 19.0908H21.4521V21.4533H23.8147V19.0908Z" fill="white"/>
    <path d="M26.177 19.0908H23.8145V21.4533H26.177V19.0908Z" fill="white"/>
    <path d="M28.5393 19.0908H26.1768V21.4533H28.5393V19.0908Z" fill="white"/>
    <path d="M30.9026 19.0908H28.54V21.4533H30.9026V19.0908Z" fill="white"/>
    <path d="M35.6272 19.0908H33.2646V21.4533H35.6272V19.0908Z" fill="white"/>
    <path d="M40.3518 19.0908H37.9893V21.4533H40.3518V19.0908Z" fill="white"/>
    <path d="M49.802 19.0908H47.4395V21.4533H49.802V19.0908Z" fill="white"/>
    <path d="M56.8899 19.0908H54.5273V21.4533H56.8899V19.0908Z" fill="white"/>
    <path d="M4.91428 21.4534H2.55176V23.8159H4.91428V21.4534Z" fill="white"/>
    <path d="M7.27658 21.4534H4.91406V23.8159H7.27658V21.4534Z" fill="white"/>
    <path d="M12.0022 21.4534H9.63965V23.8159H12.0022V21.4534Z" fill="white"/>
    <path d="M14.3645 21.4534H12.002V23.8159H14.3645V21.4534Z" fill="white"/>
    <path d="M21.4524 21.4534H19.0898V23.8159H21.4524V21.4534Z" fill="white"/>
    <path d="M23.8147 21.4534H21.4521V23.8159H23.8147V21.4534Z" fill="white"/>
    <path d="M26.177 21.4534H23.8145V23.8159H26.177V21.4534Z" fill="white"/>
    <path d="M28.5393 21.4534H26.1768V23.8159H28.5393V21.4534Z" fill="white"/>
    <path d="M35.6272 21.4534H33.2646V23.8159H35.6272V21.4534Z" fill="white"/>
    <path d="M40.3518 21.4534H37.9893V23.8159H40.3518V21.4534Z" fill="white"/>
    <path d="M45.0774 21.4534H42.7148V23.8159H45.0774V21.4534Z" fill="white"/>
    <path d="M59.2522 21.4534H56.8896V23.8159H59.2522V21.4534Z" fill="white"/>
    <path d="M2.55197 23.8159H0.189453V26.1784H2.55197V23.8159Z" fill="white"/>
    <path d="M4.91428 23.8159H2.55176V26.1784H4.91428V23.8159Z" fill="white"/>
    <path d="M7.27658 23.8159H4.91406V26.1784H7.27658V23.8159Z" fill="white"/>
    <path d="M9.63986 23.8159H7.27734V26.1784H9.63986V23.8159Z" fill="white"/>
    <path d="M16.7268 23.8159H14.3643V26.1784H16.7268V23.8159Z" fill="white"/>
    <path d="M19.0891 23.8159H16.7266V26.1784H19.0891V23.8159Z" fill="white"/>
    <path d="M23.8147 23.8159H21.4521V26.1784H23.8147V23.8159Z" fill="white"/>
    <path d="M28.5393 23.8159H26.1768V26.1784H28.5393V23.8159Z" fill="white"/>
    <path d="M30.9026 23.8159H28.54V26.1784H30.9026V23.8159Z" fill="white"/>
    <path d="M33.2649 23.8159H30.9023V26.1784H33.2649V23.8159Z" fill="white"/>
    <path d="M42.7151 23.8159H40.3525V26.1784H42.7151V23.8159Z" fill="white"/>
    <path d="M45.0774 23.8159H42.7148V26.1784H45.0774V23.8159Z" fill="white"/>
    <path d="M47.4397 23.8159H45.0771V26.1784H47.4397V23.8159Z" fill="white"/>
    <path d="M54.5276 23.8159H52.165V26.1784H54.5276V23.8159Z" fill="white"/>
    <path d="M56.8899 23.8159H54.5273V26.1784H56.8899V23.8159Z" fill="white"/>
    <path d="M59.2522 23.8159H56.8896V26.1784H59.2522V23.8159Z" fill="white"/>
    <path d="M4.91428 26.1785H2.55176V28.541H4.91428V26.1785Z" fill="white"/>
    <path d="M7.27658 26.1785H4.91406V28.541H7.27658V26.1785Z" fill="white"/>
    <path d="M9.63986 26.1785H7.27734V28.541H9.63986V26.1785Z" fill="white"/>
    <path d="M12.0022 26.1785H9.63965V28.541H12.0022V26.1785Z" fill="white"/>
    <path d="M14.3645 26.1785H12.002V28.541H14.3645V26.1785Z" fill="white"/>
    <path d="M26.177 26.1785H23.8145V28.541H26.177V26.1785Z" fill="white"/>
    <path d="M37.9895 26.1785H35.627V28.541H37.9895V26.1785Z" fill="white"/>
    <path d="M40.3518 26.1785H37.9893V28.541H40.3518V26.1785Z" fill="white"/>
    <path d="M45.0774 26.1785H42.7148V28.541H45.0774V26.1785Z" fill="white"/>
    <path d="M49.802 26.1785H47.4395V28.541H49.802V26.1785Z" fill="white"/>
    <path d="M56.8899 26.1785H54.5273V28.541H56.8899V26.1785Z" fill="white"/>
    <path d="M14.3645 28.541H12.002V30.9035H14.3645V28.541Z" fill="white"/>
    <path d="M16.7268 28.541H14.3643V30.9035H16.7268V28.541Z" fill="white"/>
    <path d="M21.4524 28.541H19.0898V30.9035H21.4524V28.541Z" fill="white"/>
    <path d="M26.177 28.541H23.8145V30.9035H26.177V28.541Z" fill="white"/>
    <path d="M28.5393 28.541H26.1768V30.9035H28.5393V28.541Z" fill="white"/>
    <path d="M30.9026 28.541H28.54V30.9035H30.9026V28.541Z" fill="white"/>
    <path d="M42.7151 28.541H40.3525V30.9035H42.7151V28.541Z" fill="white"/>
    <path d="M45.0774 28.541H42.7148V30.9035H45.0774V28.541Z" fill="white"/>
    <path d="M52.1653 28.541H49.8027V30.9035H52.1653V28.541Z" fill="white"/>
    <path d="M56.8899 28.541H54.5273V30.9035H56.8899V28.541Z" fill="white"/>
    <path d="M59.2522 28.541H56.8896V30.9035H59.2522V28.541Z" fill="white"/>
    <path d="M4.91428 30.9034H2.55176V33.266H4.91428V30.9034Z" fill="white"/>
    <path d="M12.0022 30.9034H9.63965V33.266H12.0022V30.9034Z" fill="white"/>
    <path d="M23.8147 30.9034H21.4521V33.266H23.8147V30.9034Z" fill="white"/>
    <path d="M26.177 30.9034H23.8145V33.266H26.177V30.9034Z" fill="white"/>
    <path d="M28.5393 30.9034H26.1768V33.266H28.5393V30.9034Z" fill="white"/>
    <path d="M30.9026 30.9034H28.54V33.266H30.9026V30.9034Z" fill="white"/>
    <path d="M33.2649 30.9034H30.9023V33.266H33.2649V30.9034Z" fill="white"/>
    <path d="M40.3518 30.9034H37.9893V33.266H40.3518V30.9034Z" fill="white"/>
    <path d="M42.7151 30.9034H40.3525V33.266H42.7151V30.9034Z" fill="white"/>
    <path d="M45.0774 30.9034H42.7148V33.266H45.0774V30.9034Z" fill="white"/>
    <path d="M52.1653 30.9034H49.8027V33.266H52.1653V30.9034Z" fill="white"/>
    <path d="M59.2522 30.9034H56.8896V33.266H59.2522V30.9034Z" fill="white"/>
    <path d="M2.55197 33.266H0.189453V35.6285H2.55197V33.266Z" fill="white"/>
    <path d="M9.63986 33.266H7.27734V35.6285H9.63986V33.266Z" fill="white"/>
    <path d="M12.0022 33.266H9.63965V35.6285H12.0022V33.266Z" fill="white"/>
    <path d="M14.3645 33.266H12.002V35.6285H14.3645V33.266Z" fill="white"/>
    <path d="M16.7268 33.266H14.3643V35.6285H16.7268V33.266Z" fill="white"/>
    <path d="M19.0891 33.266H16.7266V35.6285H19.0891V33.266Z" fill="white"/>
    <path d="M21.4524 33.266H19.0898V35.6285H21.4524V33.266Z" fill="white"/>
    <path d="M23.8147 33.266H21.4521V35.6285H23.8147V33.266Z" fill="white"/>
    <path d="M28.5393 33.266H26.1768V35.6285H28.5393V33.266Z" fill="white"/>
    <path d="M30.9026 33.266H28.54V35.6285H30.9026V33.266Z" fill="white"/>
    <path d="M35.6272 33.266H33.2646V35.6285H35.6272V33.266Z" fill="white"/>
    <path d="M40.3518 33.266H37.9893V35.6285H40.3518V33.266Z" fill="white"/>
    <path d="M42.7151 33.266H40.3525V35.6285H42.7151V33.266Z" fill="white"/>
    <path d="M47.4397 33.266H45.0771V35.6285H47.4397V33.266Z" fill="white"/>
    <path d="M54.5276 33.266H52.165V35.6285H54.5276V33.266Z" fill="white"/>
    <path d="M56.8899 33.266H54.5273V35.6285H56.8899V33.266Z" fill="white"/>
    <path d="M59.2522 33.266H56.8896V35.6285H59.2522V33.266Z" fill="white"/>
    <path d="M4.91428 35.6285H2.55176V37.9911H4.91428V35.6285Z" fill="white"/>
    <path d="M9.63986 35.6285H7.27734V37.9911H9.63986V35.6285Z" fill="white"/>
    <path d="M19.0891 35.6285H16.7266V37.9911H19.0891V35.6285Z" fill="white"/>
    <path d="M23.8147 35.6285H21.4521V37.9911H23.8147V35.6285Z" fill="white"/>
    <path d="M26.177 35.6285H23.8145V37.9911H26.177V35.6285Z" fill="white"/>
    <path d="M30.9026 35.6285H28.54V37.9911H30.9026V35.6285Z" fill="white"/>
    <path d="M33.2649 35.6285H30.9023V37.9911H33.2649V35.6285Z" fill="white"/>
    <path d="M35.6272 35.6285H33.2646V37.9911H35.6272V35.6285Z" fill="white"/>
    <path d="M37.9895 35.6285H35.627V37.9911H37.9895V35.6285Z" fill="white"/>
    <path d="M45.0774 35.6285H42.7148V37.9911H45.0774V35.6285Z" fill="white"/>
    <path d="M52.1653 35.6285H49.8027V37.9911H52.1653V35.6285Z" fill="white"/>
    <path d="M56.8899 35.6285H54.5273V37.9911H56.8899V35.6285Z" fill="white"/>
    <path d="M2.55197 37.9911H0.189453V40.3536H2.55197V37.9911Z" fill="white"/>
    <path d="M7.27658 37.9911H4.91406V40.3536H7.27658V37.9911Z" fill="white"/>
    <path d="M9.63986 37.9911H7.27734V40.3536H9.63986V37.9911Z" fill="white"/>
    <path d="M14.3645 37.9911H12.002V40.3536H14.3645V37.9911Z" fill="white"/>
    <path d="M16.7268 37.9911H14.3643V40.3536H16.7268V37.9911Z" fill="white"/>
    <path d="M23.8147 37.9911H21.4521V40.3536H23.8147V37.9911Z" fill="white"/>
    <path d="M26.177 37.9911H23.8145V40.3536H26.177V37.9911Z" fill="white"/>
    <path d="M28.5393 37.9911H26.1768V40.3536H28.5393V37.9911Z" fill="white"/>
    <path d="M35.6272 37.9911H33.2646V40.3536H35.6272V37.9911Z" fill="white"/>
    <path d="M40.3518 37.9911H37.9893V40.3536H40.3518V37.9911Z" fill="white"/>
    <path d="M42.7151 37.9911H40.3525V40.3536H42.7151V37.9911Z" fill="white"/>
    <path d="M45.0774 37.9911H42.7148V40.3536H45.0774V37.9911Z" fill="white"/>
    <path d="M47.4397 37.9911H45.0771V40.3536H47.4397V37.9911Z" fill="white"/>
    <path d="M49.802 37.9911H47.4395V40.3536H49.802V37.9911Z" fill="white"/>
    <path d="M52.1653 37.9911H49.8027V40.3536H52.1653V37.9911Z" fill="white"/>
    <path d="M21.4524 40.3536H19.0898V42.7162H21.4524V40.3536Z" fill="white"/>
    <path d="M23.8147 40.3536H21.4521V42.7162H23.8147V40.3536Z" fill="white"/>
    <path d="M28.5393 40.3536H26.1768V42.7162H28.5393V40.3536Z" fill="white"/>
    <path d="M35.6272 40.3536H33.2646V42.7162H35.6272V40.3536Z" fill="white"/>
    <path d="M40.3518 40.3536H37.9893V42.7162H40.3518V40.3536Z" fill="white"/>
    <path d="M49.802 40.3536H47.4395V42.7162H49.802V40.3536Z" fill="white"/>
    <path d="M52.1653 40.3536H49.8027V42.7162H52.1653V40.3536Z" fill="white"/>
    <path d="M54.5276 40.3536H52.165V42.7162H54.5276V40.3536Z" fill="white"/>
    <path d="M56.8899 40.3536H54.5273V42.7162H56.8899V40.3536Z" fill="white"/>
    <path d="M59.2522 40.3536H56.8896V42.7162H59.2522V40.3536Z" fill="white"/>
    <path d="M2.55197 42.7161H0.189453V45.0786H2.55197V42.7161Z" fill="white"/>
    <path d="M4.91428 42.7161H2.55176V45.0786H4.91428V42.7161Z" fill="white"/>
    <path d="M7.27658 42.7161H4.91406V45.0786H7.27658V42.7161Z" fill="white"/>
    <path d="M9.63986 42.7161H7.27734V45.0786H9.63986V42.7161Z" fill="white"/>
    <path d="M12.0022 42.7161H9.63965V45.0786H12.0022V42.7161Z" fill="white"/>
    <path d="M14.3645 42.7161H12.002V45.0786H14.3645V42.7161Z" fill="white"/>
    <path d="M16.7268 42.7161H14.3643V45.0786H16.7268V42.7161Z" fill="white"/>
    <path d="M33.2649 42.7161H30.9023V45.0786H33.2649V42.7161Z" fill="white"/>
    <path d="M37.9895 42.7161H35.627V45.0786H37.9895V42.7161Z" fill="white"/>
    <path d="M40.3518 42.7161H37.9893V45.0786H40.3518V42.7161Z" fill="white"/>
    <path d="M45.0774 42.7161H42.7148V45.0786H45.0774V42.7161Z" fill="white"/>
    <path d="M49.802 42.7161H47.4395V45.0786H49.802V42.7161Z" fill="white"/>
    <path d="M56.8899 42.7161H54.5273V45.0786H56.8899V42.7161Z" fill="white"/>
    <path d="M59.2522 42.7161H56.8896V45.0786H59.2522V42.7161Z" fill="white"/>
    <path d="M2.55197 45.0786H0.189453V47.4411H2.55197V45.0786Z" fill="white"/>
    <path d="M16.7268 45.0786H14.3643V47.4411H16.7268V45.0786Z" fill="white"/>
    <path d="M26.177 45.0786H23.8145V47.4411H26.177V45.0786Z" fill="white"/>
    <path d="M28.5393 45.0786H26.1768V47.4411H28.5393V45.0786Z" fill="white"/>
    <path d="M40.3518 45.0786H37.9893V47.4411H40.3518V45.0786Z" fill="white"/>
    <path d="M49.802 45.0786H47.4395V47.4411H49.802V45.0786Z" fill="white"/>
    <path d="M52.1653 45.0786H49.8027V47.4411H52.1653V45.0786Z" fill="white"/>
    <path d="M2.55197 47.4412H0.189453V49.8037H2.55197V47.4412Z" fill="white"/>
    <path d="M7.27658 47.4412H4.91406V49.8037H7.27658V47.4412Z" fill="white"/>
    <path d="M9.63986 47.4412H7.27734V49.8037H9.63986V47.4412Z" fill="white"/>
    <path d="M12.0022 47.4412H9.63965V49.8037H12.0022V47.4412Z" fill="white"/>
    <path d="M16.7268 47.4412H14.3643V49.8037H16.7268V47.4412Z" fill="white"/>
    <path d="M21.4524 47.4412H19.0898V49.8037H21.4524V47.4412Z" fill="white"/>
    <path d="M23.8147 47.4412H21.4521V49.8037H23.8147V47.4412Z" fill="white"/>
    <path d="M26.177 47.4412H23.8145V49.8037H26.177V47.4412Z" fill="white"/>
    <path d="M30.9026 47.4412H28.54V49.8037H30.9026V47.4412Z" fill="white"/>
    <path d="M40.3518 47.4412H37.9893V49.8037H40.3518V47.4412Z" fill="white"/>
    <path d="M42.7151 47.4412H40.3525V49.8037H42.7151V47.4412Z" fill="white"/>
    <path d="M45.0774 47.4412H42.7148V49.8037H45.0774V47.4412Z" fill="white"/>
    <path d="M47.4397 47.4412H45.0771V49.8037H47.4397V47.4412Z" fill="white"/>
    <path d="M49.802 47.4412H47.4395V49.8037H49.802V47.4412Z" fill="white"/>
    <path d="M59.2522 47.4412H56.8896V49.8037H59.2522V47.4412Z" fill="white"/>
    <path d="M2.55197 49.8037H0.189453V52.1662H2.55197V49.8037Z" fill="white"/>
    <path d="M7.27658 49.8037H4.91406V52.1662H7.27658V49.8037Z" fill="white"/>
    <path d="M9.63986 49.8037H7.27734V52.1662H9.63986V49.8037Z" fill="white"/>
    <path d="M12.0022 49.8037H9.63965V52.1662H12.0022V49.8037Z" fill="white"/>
    <path d="M16.7268 49.8037H14.3643V52.1662H16.7268V49.8037Z" fill="white"/>
    <path d="M26.177 49.8037H23.8145V52.1662H26.177V49.8037Z" fill="white"/>
    <path d="M28.5393 49.8037H26.1768V52.1662H28.5393V49.8037Z" fill="white"/>
    <path d="M30.9026 49.8037H28.54V52.1662H30.9026V49.8037Z" fill="white"/>
    <path d="M33.2649 49.8037H30.9023V52.1662H33.2649V49.8037Z" fill="white"/>
    <path d="M37.9895 49.8037H35.627V52.1662H37.9895V49.8037Z" fill="white"/>
    <path d="M40.3518 49.8037H37.9893V52.1662H40.3518V49.8037Z" fill="white"/>
    <path d="M49.802 49.8037H47.4395V52.1662H49.802V49.8037Z" fill="white"/>
    <path d="M54.5276 49.8037H52.165V52.1662H54.5276V49.8037Z" fill="white"/>
    <path d="M2.55197 52.1663H0.189453V54.5288H2.55197V52.1663Z" fill="white"/>
    <path d="M7.27658 52.1663H4.91406V54.5288H7.27658V52.1663Z" fill="white"/>
    <path d="M9.63986 52.1663H7.27734V54.5288H9.63986V52.1663Z" fill="white"/>
    <path d="M12.0022 52.1663H9.63965V54.5288H12.0022V52.1663Z" fill="white"/>
    <path d="M16.7268 52.1663H14.3643V54.5288H16.7268V52.1663Z" fill="white"/>
    <path d="M21.4524 52.1663H19.0898V54.5288H21.4524V52.1663Z" fill="white"/>
    <path d="M26.177 52.1663H23.8145V54.5288H26.177V52.1663Z" fill="white"/>
    <path d="M28.5393 52.1663H26.1768V54.5288H28.5393V52.1663Z" fill="white"/>
    <path d="M30.9026 52.1663H28.54V54.5288H30.9026V52.1663Z" fill="white"/>
    <path d="M35.6272 52.1663H33.2646V54.5288H35.6272V52.1663Z" fill="white"/>
    <path d="M37.9895 52.1663H35.627V54.5288H37.9895V52.1663Z" fill="white"/>
    <path d="M42.7151 52.1663H40.3525V54.5288H42.7151V52.1663Z" fill="white"/>
    <path d="M47.4397 52.1663H45.0771V54.5288H47.4397V52.1663Z" fill="white"/>
    <path d="M49.802 52.1663H47.4395V54.5288H49.802V52.1663Z" fill="white"/>
    <path d="M52.1653 52.1663H49.8027V54.5288H52.1653V52.1663Z" fill="white"/>
    <path d="M59.2522 52.1663H56.8896V54.5288H59.2522V52.1663Z" fill="white"/>
    <path d="M2.55197 54.5286H0.189453V56.8911H2.55197V54.5286Z" fill="white"/>
    <path d="M16.7268 54.5286H14.3643V56.8911H16.7268V54.5286Z" fill="white"/>
    <path d="M23.8147 54.5286H21.4521V56.8911H23.8147V54.5286Z" fill="white"/>
    <path d="M26.177 54.5286H23.8145V56.8911H26.177V54.5286Z" fill="white"/>
    <path d="M30.9026 54.5286H28.54V56.8911H30.9026V54.5286Z" fill="white"/>
    <path d="M33.2649 54.5286H30.9023V56.8911H33.2649V54.5286Z" fill="white"/>
    <path d="M35.6272 54.5286H33.2646V56.8911H35.6272V54.5286Z" fill="white"/>
    <path d="M37.9895 54.5286H35.627V56.8911H37.9895V54.5286Z" fill="white"/>
    <path d="M40.3518 54.5286H37.9893V56.8911H40.3518V54.5286Z" fill="white"/>
    <path d="M49.802 54.5286H47.4395V56.8911H49.802V54.5286Z" fill="white"/>
    <path d="M52.1653 54.5286H49.8027V56.8911H52.1653V54.5286Z" fill="white"/>
    <path d="M56.8899 54.5286H54.5273V56.8911H56.8899V54.5286Z" fill="white"/>
    <path d="M2.55197 56.8911H0.189453V59.2536H2.55197V56.8911Z" fill="white"/>
    <path d="M4.91428 56.8911H2.55176V59.2536H4.91428V56.8911Z" fill="white"/>
    <path d="M7.27658 56.8911H4.91406V59.2536H7.27658V56.8911Z" fill="white"/>
    <path d="M9.63986 56.8911H7.27734V59.2536H9.63986V56.8911Z" fill="white"/>
    <path d="M12.0022 56.8911H9.63965V59.2536H12.0022V56.8911Z" fill="white"/>
    <path d="M14.3645 56.8911H12.002V59.2536H14.3645V56.8911Z" fill="white"/>
    <path d="M16.7268 56.8911H14.3643V59.2536H16.7268V56.8911Z" fill="white"/>
    <path d="M21.4524 56.8911H19.0898V59.2536H21.4524V56.8911Z" fill="white"/>
    <path d="M28.5393 56.8911H26.1768V59.2536H28.5393V56.8911Z" fill="white"/>
    <path d="M35.6272 56.8911H33.2646V59.2536H35.6272V56.8911Z" fill="white"/>
    <path d="M40.3518 56.8911H37.9893V59.2536H40.3518V56.8911Z" fill="white"/>
    <path d="M42.7151 56.8911H40.3525V59.2536H42.7151V56.8911Z" fill="white"/>
    <path d="M47.4397 56.8911H45.0771V59.2536H47.4397V56.8911Z" fill="white"/>
    <path d="M56.8899 56.8911H54.5273V59.2536H56.8899V56.8911Z" fill="white"/>
    <path d="M59.2522 56.8911H56.8896V59.2536H59.2522V56.8911Z" fill="white"/>
</svg>
